<svg width="30" height="27" viewBox="0 0 30 27" fill="none" xmlns="http://www.w3.org/2000/svg">
<ellipse cx="15" cy="13.309" rx="15" ry="13.3183" fill="#C4C4C4"/>
<path d="M11.6842 10.3657L11.6842 10.0419C11.6842 8.41414 13.0038 7.09456 14.6316 7.09456V7.09456C16.2594 7.09456 17.5789 8.41414 17.5789 10.0419L17.5789 10.3657" stroke="white" stroke-width="2" stroke-linecap="round"/>
<path fill-rule="evenodd" clip-rule="evenodd" d="M8.24405 10.7533C8 11.2009 8 11.7945 8 12.9819C8 15.3565 8 16.5438 8.4881 17.439C8.85599 18.1137 9.41045 18.6682 10.0852 19.0361C10.9804 19.5242 12.1677 19.5242 14.5423 19.5242H14.7208C17.0955 19.5242 18.2828 19.5242 19.178 19.0361C19.8527 18.6682 20.4072 18.1137 20.7751 17.439C21.2632 16.5438 21.2632 15.3565 21.2632 12.9819C21.2632 11.7945 21.2632 11.2009 21.0191 10.7533C20.8352 10.4159 20.5579 10.1387 20.2206 9.95475C19.773 9.71069 19.1793 9.71069 17.992 9.71069H11.2712C10.0838 9.71069 9.49019 9.71069 9.04258 9.95475C8.70522 10.1387 8.42799 10.4159 8.24405 10.7533ZM13.4211 12.9822C13.4211 12.4299 12.9733 11.9822 12.4211 11.9822C11.8688 11.9822 11.4211 12.4299 11.4211 12.9822V14.2907C11.4211 14.843 11.8688 15.2907 12.4211 15.2907C12.9733 15.2907 13.4211 14.843 13.4211 14.2907V12.9822ZM17.8421 12.9822C17.8421 12.4299 17.3944 11.9822 16.8421 11.9822C16.2898 11.9822 15.8421 12.4299 15.8421 12.9822V14.2907C15.8421 14.843 16.2898 15.2907 16.8421 15.2907C17.3944 15.2907 17.8421 14.843 17.8421 14.2907V12.9822Z" fill="white"/>
</svg>
