<svg width="105" height="27" viewBox="0 0 105 27" fill="none" xmlns="http://www.w3.org/2000/svg">
<path d="M54.62 11.9807C54.54 12.0874 54.46 12.1707 54.38 12.2307C54.3 12.2841 54.1867 12.3107 54.04 12.3107C53.9067 12.3107 53.7767 12.2741 53.65 12.2007C53.53 12.1207 53.39 12.0374 53.23 11.9507C53.07 11.8574 52.88 11.7741 52.66 11.7007C52.44 11.6207 52.1667 11.5807 51.84 11.5807C51.4267 11.5807 51.0667 11.6574 50.76 11.8107C50.46 11.9574 50.21 12.1707 50.01 12.4507C49.81 12.7307 49.66 13.0707 49.56 13.4707C49.4667 13.8707 49.42 14.3207 49.42 14.8207C49.42 15.8741 49.63 16.6807 50.05 17.2407C50.4767 17.8007 51.0567 18.0807 51.79 18.0807C52.0433 18.0807 52.26 18.0607 52.44 18.0207C52.6267 17.9741 52.7867 17.9174 52.92 17.8507C53.06 17.7841 53.18 17.7107 53.28 17.6307C53.38 17.5507 53.4733 17.4774 53.56 17.4107C53.6533 17.3441 53.7433 17.2907 53.83 17.2507C53.9233 17.2041 54.0267 17.1807 54.14 17.1807C54.3533 17.1807 54.52 17.2607 54.64 17.4207L55.43 18.4207C55.1367 18.7607 54.8233 19.0441 54.49 19.2707C54.1567 19.4907 53.81 19.6674 53.45 19.8007C53.0967 19.9274 52.7367 20.0141 52.37 20.0607C52.0033 20.1141 51.64 20.1407 51.28 20.1407C50.6467 20.1407 50.0467 20.0241 49.48 19.7907C48.9133 19.5507 48.4167 19.2041 47.99 18.7507C47.5633 18.2974 47.2233 17.7407 46.97 17.0807C46.7233 16.4207 46.6 15.6674 46.6 14.8207C46.6 14.0674 46.71 13.3674 46.93 12.7207C47.15 12.0741 47.4733 11.5141 47.9 11.0407C48.3267 10.5674 48.8533 10.1974 49.48 9.93072C50.1133 9.65739 50.8433 9.52072 51.67 9.52072C52.4567 9.52072 53.1467 9.64739 53.74 9.90072C54.3333 10.1541 54.8667 10.5207 55.34 11.0007L54.62 11.9807ZM62.2175 15.6807C61.5442 15.7141 60.9842 15.7741 60.5375 15.8607C60.0908 15.9407 59.7342 16.0474 59.4675 16.1807C59.2075 16.3141 59.0208 16.4674 58.9075 16.6407C58.8008 16.8074 58.7475 16.9907 58.7475 17.1907C58.7475 17.5907 58.8575 17.8741 59.0775 18.0407C59.3042 18.2074 59.6175 18.2907 60.0175 18.2907C60.4775 18.2907 60.8742 18.2107 61.2075 18.0507C61.5475 17.8841 61.8842 17.6274 62.2175 17.2807V15.6807ZM56.5975 11.1107C57.2042 10.5641 57.8742 10.1574 58.6075 9.89072C59.3408 9.61739 60.1342 9.48072 60.9875 9.48072C61.6008 9.48072 62.1475 9.58072 62.6275 9.78072C63.1142 9.98072 63.5242 10.2607 63.8575 10.6207C64.1975 10.9741 64.4575 11.3974 64.6375 11.8907C64.8175 12.3841 64.9075 12.9241 64.9075 13.5107V19.9907H63.6475C63.3875 19.9907 63.1875 19.9541 63.0475 19.8807C62.9142 19.8074 62.8042 19.6541 62.7175 19.4207L62.4975 18.7607C62.2375 18.9874 61.9842 19.1874 61.7375 19.3607C61.4975 19.5341 61.2475 19.6807 60.9875 19.8007C60.7275 19.9141 60.4475 20.0007 60.1475 20.0607C59.8542 20.1207 59.5242 20.1507 59.1575 20.1507C58.7042 20.1507 58.2908 20.0907 57.9175 19.9707C57.5442 19.8507 57.2208 19.6741 56.9475 19.4407C56.6808 19.2007 56.4742 18.9041 56.3275 18.5507C56.1808 18.1974 56.1075 17.7907 56.1075 17.3307C56.1075 16.9507 56.2042 16.5707 56.3975 16.1907C56.5908 15.8107 56.9208 15.4674 57.3875 15.1607C57.8608 14.8474 58.4875 14.5907 59.2675 14.3907C60.0542 14.1841 61.0375 14.0674 62.2175 14.0407V13.5107C62.2175 12.8641 62.0808 12.3907 61.8075 12.0907C61.5342 11.7841 61.1408 11.6307 60.6275 11.6307C60.2475 11.6307 59.9308 11.6774 59.6775 11.7707C59.4242 11.8574 59.2008 11.9541 59.0075 12.0607C58.8208 12.1607 58.6442 12.2574 58.4775 12.3507C58.3108 12.4374 58.1175 12.4807 57.8975 12.4807C57.7042 12.4807 57.5408 12.4341 57.4075 12.3407C57.2808 12.2407 57.1742 12.1241 57.0875 11.9907L56.5975 11.1107ZM69.8219 17.2707C70.0819 17.5707 70.3619 17.7807 70.6619 17.9007C70.9685 18.0207 71.2852 18.0807 71.6119 18.0807C71.9519 18.0807 72.2585 18.0207 72.5319 17.9007C72.8119 17.7741 73.0519 17.5774 73.2519 17.3107C73.4519 17.0374 73.6052 16.6841 73.7119 16.2507C73.8185 15.8174 73.8719 15.2941 73.8719 14.6807C73.8719 14.1341 73.8285 13.6707 73.7419 13.2907C73.6552 12.9041 73.5252 12.5874 73.3519 12.3407C73.1852 12.0941 72.9785 11.9141 72.7319 11.8007C72.4852 11.6874 72.1985 11.6307 71.8719 11.6307C71.4385 11.6307 71.0619 11.7274 70.7419 11.9207C70.4285 12.1074 70.1219 12.3841 69.8219 12.7507V17.2707ZM69.8219 10.8707C70.2285 10.4641 70.6785 10.1374 71.1719 9.89072C71.6652 9.64406 72.2185 9.52072 72.8319 9.52072C73.4252 9.52072 73.9585 9.64072 74.4319 9.88072C74.9119 10.1141 75.3185 10.4507 75.6519 10.8907C75.9919 11.3307 76.2519 11.8641 76.4319 12.4907C76.6185 13.1107 76.7119 13.8074 76.7119 14.5807C76.7119 15.4141 76.6052 16.1741 76.3919 16.8607C76.1852 17.5407 75.8885 18.1241 75.5019 18.6107C75.1152 19.0974 74.6519 19.4741 74.1119 19.7407C73.5785 20.0074 72.9819 20.1407 72.3219 20.1407C72.0019 20.1407 71.7152 20.1074 71.4619 20.0407C71.2085 19.9807 70.9752 19.8941 70.7619 19.7807C70.5485 19.6674 70.3519 19.5341 70.1719 19.3807C69.9919 19.2207 69.8219 19.0441 69.6619 18.8507L69.5519 19.4707C69.5052 19.6641 69.4285 19.8007 69.3219 19.8807C69.2152 19.9541 69.0719 19.9907 68.8919 19.9907H67.0619V5.08072H69.8219V10.8707ZM85.0277 13.6207C85.0277 13.3341 84.9877 13.0607 84.9077 12.8007C84.8343 12.5407 84.7143 12.3107 84.5477 12.1107C84.381 11.9107 84.171 11.7541 83.9177 11.6407C83.6643 11.5207 83.361 11.4607 83.0077 11.4607C82.3477 11.4607 81.831 11.6474 81.4577 12.0207C81.0843 12.3941 80.841 12.9274 80.7277 13.6207H85.0277ZM80.6877 15.2607C80.7743 16.2274 81.0477 16.9341 81.5077 17.3807C81.9743 17.8274 82.581 18.0507 83.3277 18.0507C83.7077 18.0507 84.0343 18.0074 84.3077 17.9207C84.5877 17.8274 84.831 17.7274 85.0377 17.6207C85.251 17.5074 85.441 17.4074 85.6077 17.3207C85.781 17.2274 85.951 17.1807 86.1177 17.1807C86.331 17.1807 86.4977 17.2607 86.6177 17.4207L87.4177 18.4207C87.1243 18.7607 86.801 19.0441 86.4477 19.2707C86.0943 19.4907 85.7277 19.6674 85.3477 19.8007C84.9677 19.9274 84.5843 20.0141 84.1977 20.0607C83.811 20.1141 83.4377 20.1407 83.0777 20.1407C82.3577 20.1407 81.6843 20.0241 81.0577 19.7907C80.4377 19.5507 79.8943 19.2007 79.4277 18.7407C78.9677 18.2741 78.6043 17.6974 78.3377 17.0107C78.071 16.3241 77.9377 15.5274 77.9377 14.6207C77.9377 13.9207 78.051 13.2607 78.2777 12.6407C78.511 12.0207 78.8443 11.4807 79.2777 11.0207C79.711 10.5607 80.2377 10.1974 80.8577 9.93072C81.4777 9.65739 82.1777 9.52072 82.9577 9.52072C83.6177 9.52072 84.2243 9.62739 84.7777 9.84072C85.3377 10.0474 85.8177 10.3507 86.2177 10.7507C86.6243 11.1507 86.9377 11.6441 87.1577 12.2307C87.3843 12.8107 87.4977 13.4741 87.4977 14.2207C87.4977 14.4274 87.4877 14.5974 87.4677 14.7307C87.4477 14.8641 87.4143 14.9707 87.3677 15.0507C87.321 15.1307 87.2577 15.1874 87.1777 15.2207C87.0977 15.2474 86.9943 15.2607 86.8677 15.2607H80.6877ZM92.0503 9.68072V19.9907H89.2903V9.68072H92.0503ZM92.3803 6.75072C92.3803 6.98406 92.3336 7.20072 92.2403 7.40072C92.147 7.60072 92.0203 7.77739 91.8603 7.93072C91.707 8.08406 91.5236 8.20406 91.3103 8.29072C91.1036 8.37739 90.8803 8.42072 90.6403 8.42072C90.4136 8.42072 90.197 8.37739 89.9903 8.29072C89.7903 8.20406 89.6136 8.08406 89.4603 7.93072C89.307 7.77739 89.1836 7.60072 89.0903 7.40072C89.0036 7.20072 88.9603 6.98406 88.9603 6.75072C88.9603 6.51739 89.0036 6.30072 89.0903 6.10072C89.1836 5.89406 89.307 5.71406 89.4603 5.56072C89.6136 5.40739 89.7903 5.28739 89.9903 5.20072C90.197 5.11405 90.4136 5.07072 90.6403 5.07072C90.8803 5.07072 91.1036 5.11405 91.3103 5.20072C91.5236 5.28739 91.707 5.40739 91.8603 5.56072C92.0203 5.71406 92.147 5.89406 92.2403 6.10072C92.3336 6.30072 92.3803 6.51739 92.3803 6.75072ZM96.9656 10.8807C97.1723 10.6807 97.3856 10.4974 97.6056 10.3307C97.8323 10.1641 98.069 10.0207 98.3156 9.90072C98.569 9.78072 98.839 9.68739 99.1256 9.62072C99.419 9.55406 99.7356 9.52072 100.076 9.52072C100.636 9.52072 101.132 9.61739 101.566 9.81072C101.999 10.0041 102.362 10.2741 102.656 10.6207C102.956 10.9674 103.179 11.3807 103.326 11.8607C103.479 12.3407 103.556 12.8674 103.556 13.4407V19.9907H100.806V13.4407C100.806 12.8674 100.672 12.4241 100.406 12.1107C100.139 11.7907 99.7456 11.6307 99.2256 11.6307C98.839 11.6307 98.4756 11.7141 98.1356 11.8807C97.7956 12.0474 97.4723 12.2807 97.1656 12.5807V19.9907H94.4056V9.68072H96.1056C96.4523 9.68072 96.6823 9.84072 96.7956 10.1607L96.9656 10.8807Z" fill="#C4C4C4"/>
<ellipse cx="15" cy="13.309" rx="15" ry="13.3183" fill="#C4C4C4"/>
<path d="M11.6842 10.3657L11.6842 10.0419C11.6842 8.41414 13.0038 7.09456 14.6316 7.09456V7.09456C16.2594 7.09456 17.5789 8.41414 17.5789 10.0419L17.5789 10.3657" stroke="white" stroke-width="2" stroke-linecap="round"/>
<path fill-rule="evenodd" clip-rule="evenodd" d="M8.24405 10.7533C8 11.2009 8 11.7945 8 12.9819C8 15.3565 8 16.5438 8.4881 17.439C8.85599 18.1137 9.41045 18.6682 10.0852 19.0361C10.9804 19.5242 12.1677 19.5242 14.5423 19.5242H14.7208C17.0955 19.5242 18.2828 19.5242 19.178 19.0361C19.8527 18.6682 20.4072 18.1137 20.7751 17.439C21.2632 16.5438 21.2632 15.3565 21.2632 12.9819C21.2632 11.7945 21.2632 11.2009 21.0191 10.7533C20.8352 10.4159 20.5579 10.1387 20.2206 9.95475C19.773 9.71069 19.1793 9.71069 17.992 9.71069H11.2712C10.0838 9.71069 9.49019 9.71069 9.04258 9.95475C8.70522 10.1387 8.42799 10.4159 8.24405 10.7533ZM13.4211 12.9822C13.4211 12.4299 12.9733 11.9822 12.4211 11.9822C11.8688 11.9822 11.4211 12.4299 11.4211 12.9822V14.2907C11.4211 14.843 11.8688 15.2907 12.4211 15.2907C12.9733 15.2907 13.4211 14.843 13.4211 14.2907V12.9822ZM17.8421 12.9822C17.8421 12.4299 17.3944 11.9822 16.8421 11.9822C16.2898 11.9822 15.8421 12.4299 15.8421 12.9822V14.2907C15.8421 14.843 16.2898 15.2907 16.8421 15.2907C17.3944 15.2907 17.8421 14.843 17.8421 14.2907V12.9822Z" fill="white"/>
</svg>
